<svg width="464" height="200" viewBox="0 0 464 200" fill="none" xmlns="http://www.w3.org/2000/svg">
<path d="M-40.5797 95.3261C-28.2342 125.925 -22.2998 148.406 -13.3446 190.497C-15.7514 160.69 -35.9221 39.6544 15.3498 34.6211C45.347 31.6766 58.678 100.691 77.5868 149.496C86.8353 173.367 74.1406 56.1514 117.216 50.3993C151.643 45.8025 151.36 161.773 211.562 167.245C249.191 170.665 273.012 149.571 289.486 122.363C301.526 102.476 311.21 80.477 309.997 58.5273C308.785 36.5776 294.213 15.0017 271.157 10.4493C244.235 5.13351 214.904 25.318 204.902 50.0496C193.304 78.7299 203.801 111.476 227.218 130.612C250.635 149.747 284.998 155.915 317.287 150.465C374.256 140.85 419.635 100.029 454.341 58.5328" stroke="#FA9F76" stroke-width="18" stroke-linecap="round" stroke-linejoin="round"/>
</svg>
