<svg width="560" height="216" viewBox="0 0 560 216" fill="none" xmlns="http://www.w3.org/2000/svg">
<path d="M147.6 3.39999V138.7H168.6V172.9H147.6V212.5H102.3V172.9H0.9V138.7L103.5 3.39999H147.6ZM104.7 65.2L49.2 138.7H104.7V65.2ZM327.021 13.9C340.821 22.9 351.321 35.5 359.121 51.4C366.921 67.3 370.821 85.9 370.821 107.2C370.821 128.5 366.921 147.1 359.121 163.3C351.321 179.8 340.521 192.4 327.021 201.7C313.221 210.7 297.921 215.5 280.521 215.5C262.821 215.5 247.521 210.7 233.721 201.7C220.221 192.4 209.421 179.8 201.621 163.3C193.821 146.8 190.221 128.2 190.221 107.2C190.221 85.9 193.821 67.3 201.621 51.4C209.421 35.5 220.221 22.9 233.721 13.9C247.521 4.89999 262.821 0.399996 280.521 0.399996C297.921 0.399996 313.521 4.89999 327.021 13.9ZM318.921 142.3C322.221 131.5 323.721 119.5 323.721 106.9C323.721 94 322.221 82.3 318.921 71.8C315.921 61.6 311.121 53.2 304.821 46.9C298.521 40.9 290.121 37.6 280.521 37.6C270.621 37.6 262.521 40.9 255.921 47.2C249.621 53.5 244.821 61.9 241.821 72.1C238.521 82.6 237.021 94.3 237.021 106.9C237.021 119.8 238.521 131.8 241.821 142.6C244.821 153.4 249.621 162.1 256.221 168.4C262.521 175 270.621 178.3 280.521 178.3C290.121 178.3 298.521 175 304.821 168.4C311.121 161.8 315.921 153.1 318.921 142.3ZM538.42 3.39999V138.7H559.42V172.9H538.42V212.5H493.12V172.9H391.72V138.7L494.32 3.39999H538.42ZM495.52 65.2L440.02 138.7H495.52V65.2Z" fill="#F0FF1E"/>
</svg>
