<svg width="390" height="234" viewBox="0 0 390 234" fill="none" xmlns="http://www.w3.org/2000/svg">
<g clip-path="url(#clip0_831_11910)">
<path d="M426.411 87.8838C421.717 62.7127 412.593 180.287 369.174 178.009C334.471 176.187 356.128 62.227 297.935 45.7604C261.561 35.4679 234.248 51.8178 213.032 75.5328C197.525 92.8662 183.948 112.71 181.094 134.513C178.24 156.315 188.593 180.21 210.426 188.932C235.921 199.116 268.485 184.675 282.88 162.203C299.572 136.143 295.286 102.016 275.786 78.891C256.285 55.7659 223.63 43.3739 190.873 42.7851C133.078 41.7457 80.9283 73.5194 39.1496 107.923" stroke="#9AD3E0" stroke-width="18" stroke-linecap="round" stroke-linejoin="round"/>
</g>
<defs>
<clipPath id="clip0_831_11910">
<rect width="401" height="234" fill="white"/>
</clipPath>
</defs>
</svg>
