<svg width="470" height="357" viewBox="0 0 470 357" fill="none" xmlns="http://www.w3.org/2000/svg">
<path d="M226.478 -172.314C287.225 -101.268 321.235 0.0397341 300.377 85.1351C281.878 160.61 204.309 224.981 114.65 208.385C87.0419 203.275 59.1801 190.982 40.4666 170.084C24.5857 152.35 16.7006 127.832 23.9786 107.235C30.7863 87.969 44.0468 67.0099 70.7922 56.4056C136.194 30.4741 240.391 67.9452 286.018 127.297C322.071 174.196 318.816 236.398 299.374 287.497C279.933 338.594 261.836 372.603 225.331 433.852C255.967 394.909 367.726 225.067 435.746 276.683C475.541 306.881 414.041 405.785 382.081 486.404" stroke="#F6F5F4" stroke-width="42" stroke-linecap="round" stroke-linejoin="round"/>
</svg>
